<?xml version="1.0" encoding="UTF-8"?>
<svg xmlns="http://www.w3.org/2000/svg" fill-opacity="1" color-rendering="auto" color-interpolation="auto"
     text-rendering="auto" stroke="black" stroke-linecap="square" width="1582" stroke-miterlimit="10"
     shape-rendering="auto" stroke-opacity="1" fill="black" stroke-dasharray="none" font-weight="normal"
     stroke-width="1" height="974" font-family="'Dialog'" font-style="normal" stroke-linejoin="miter" font-size="12px"
     stroke-dashoffset="0" image-rendering="auto">
    <!--Generated by ySVG 2.5-->
    <defs id="genericDefs"/>
    <g>
        <defs id="defs1">
            <clipPath clipPathUnits="userSpaceOnUse" id="clipPath1">
                <path d="M0 0 L1582 0 L1582 974 L0 974 L0 0 Z"/>
            </clipPath>
            <clipPath clipPathUnits="userSpaceOnUse" id="clipPath2">
                <path d="M694 262 L1485 262 L1485 749 L694 749 L694 262 Z"/>
            </clipPath>
        </defs>
        <g fill="rgb(255,102,0)" text-rendering="geometricPrecision" shape-rendering="geometricPrecision"
           transform="matrix(2,0,0,2,-1388,-524)" stroke="rgb(255,102,0)">
            <rect x="968.7952" width="207.6576" height="30" y="330.4" clip-path="url(#clipPath2)" stroke="none"/>
        </g>
        <g text-rendering="geometricPrecision" stroke-miterlimit="1.45" shape-rendering="geometricPrecision"
           transform="matrix(2,0,0,2,-1388,-524)" stroke-linecap="butt">
            <rect fill="none" x="968.7952" width="207.6576" height="30" y="330.4" clip-path="url(#clipPath2)"/>
            <text x="1012.2695" xml:space="preserve" y="349.5543" clip-path="url(#clipPath2)" font-family="sans-serif" stroke="none">AutoRefRegistration</text>
        </g>
        <g fill="rgb(255,102,0)" text-rendering="geometricPrecision" shape-rendering="geometricPrecision"
           transform="matrix(2,0,0,2,-1388,-524)" stroke="rgb(255,102,0)">
            <path d="M702.7904 285.4 L723.5562 270.4 L889.6823 270.4 L910.448 285.4 L889.6823 300.4 L723.5562 300.4 Z"
                  fill-rule="evenodd" clip-path="url(#clipPath2)" stroke="none"/>
        </g>
        <g text-rendering="geometricPrecision" stroke-miterlimit="1.45" shape-rendering="geometricPrecision"
           transform="matrix(2,0,0,2,-1388,-524)" stroke-linecap="butt">
            <path fill="none"
                  d="M702.7904 285.4 L723.5562 270.4 L889.6823 270.4 L910.448 285.4 L889.6823 300.4 L723.5562 300.4 Z"
                  fill-rule="evenodd" clip-path="url(#clipPath2)"/>
            <text x="782.7159" xml:space="preserve" y="289.5543" clip-path="url(#clipPath2)" font-family="sans-serif" stroke="none">AutoRef</text>
        </g>
        <g fill="rgb(255,102,0)" text-rendering="geometricPrecision" shape-rendering="geometricPrecision"
           transform="matrix(2,0,0,2,-1388,-524)" stroke="rgb(255,102,0)">
            <path d="M1234.8 285.4 L1255.5658 270.4 L1421.6919 270.4 L1442.4576 285.4 L1421.6919 300.4 L1255.5658 300.4 Z"
                  fill-rule="evenodd" clip-path="url(#clipPath2)" stroke="none"/>
        </g>
        <g text-rendering="geometricPrecision" stroke-miterlimit="1.45" shape-rendering="geometricPrecision"
           transform="matrix(2,0,0,2,-1388,-524)" stroke-linecap="butt">
            <path fill="none"
                  d="M1234.8 285.4 L1255.5658 270.4 L1421.6919 270.4 L1442.4576 285.4 L1421.6919 300.4 L1255.5658 300.4 Z"
                  fill-rule="evenodd" clip-path="url(#clipPath2)"/>
            <text x="1289.2137" xml:space="preserve" y="289.5543" clip-path="url(#clipPath2)" font-family="sans-serif" stroke="none">Game Controller</text>
        </g>
        <g fill="rgb(255,102,0)" text-rendering="geometricPrecision" shape-rendering="geometricPrecision"
           transform="matrix(2,0,0,2,-1388,-524)" stroke="rgb(255,102,0)">
            <rect x="702.7904" y="330.4" clip-path="url(#clipPath2)" width="207.6576" rx="4" ry="4" height="30"
                  stroke="none"/>
        </g>
        <g text-rendering="geometricPrecision" stroke-miterlimit="1.45" shape-rendering="geometricPrecision"
           transform="matrix(2,0,0,2,-1388,-524)" stroke-linecap="butt">
            <rect x="702.7904" y="330.4" clip-path="url(#clipPath2)" fill="none" width="207.6576" rx="4" ry="4"
                  height="30"/>
            <text x="744.1085" xml:space="preserve" y="349.5543" clip-path="url(#clipPath2)" font-family="sans-serif" stroke="none">connect to controller</text>
        </g>
        <g fill="rgb(255,102,0)" text-rendering="geometricPrecision" shape-rendering="geometricPrecision"
           transform="matrix(2,0,0,2,-1388,-524)" stroke="rgb(255,102,0)">
            <rect x="1234.8" y="330.4" clip-path="url(#clipPath2)" width="207.6576" rx="4" ry="4" height="30"
                  stroke="none"/>
        </g>
        <g text-rendering="geometricPrecision" stroke-miterlimit="1.45" shape-rendering="geometricPrecision"
           transform="matrix(2,0,0,2,-1388,-524)" stroke-linecap="butt">
            <rect x="1234.8" y="330.4" clip-path="url(#clipPath2)" fill="none" width="207.6576" rx="4" ry="4"
                  height="30"/>
            <text x="1292.2284" xml:space="preserve" y="349.5543" clip-path="url(#clipPath2)" font-family="sans-serif" stroke="none">check identifier</text>
        </g>
        <g fill="rgb(255,102,0)" text-rendering="geometricPrecision" shape-rendering="geometricPrecision"
           transform="matrix(2,0,0,2,-1388,-524)" stroke="rgb(255,102,0)">
            <rect x="1234.8" y="390.4" clip-path="url(#clipPath2)" width="207.6576" rx="4" ry="4" height="30"
                  stroke="none"/>
        </g>
        <g text-rendering="geometricPrecision" stroke-miterlimit="1.45" shape-rendering="geometricPrecision"
           transform="matrix(2,0,0,2,-1388,-524)" stroke-linecap="butt">
            <rect x="1234.8" y="390.4" clip-path="url(#clipPath2)" fill="none" width="207.6576" rx="4" ry="4"
                  height="30"/>
            <text x="1282.5194" xml:space="preserve" y="409.5543" clip-path="url(#clipPath2)" font-family="sans-serif" stroke="none">identifier is unique</text>
        </g>
        <g fill="rgb(255,102,0)" text-rendering="geometricPrecision" shape-rendering="geometricPrecision"
           transform="matrix(2,0,0,2,-1388,-524)" stroke="rgb(255,102,0)">
            <rect x="1234.8" y="450.4" clip-path="url(#clipPath2)" width="207.6576" rx="4" ry="4" height="30"
                  stroke="none"/>
        </g>
        <g text-rendering="geometricPrecision" stroke-miterlimit="1.45" shape-rendering="geometricPrecision"
           transform="matrix(2,0,0,2,-1388,-524)" stroke-linecap="butt">
            <rect x="1234.8" y="450.4" clip-path="url(#clipPath2)" fill="none" width="207.6576" rx="4" ry="4"
                  height="30"/>
            <text x="1292.2811" xml:space="preserve" y="469.5543" clip-path="url(#clipPath2)" font-family="sans-serif" stroke="none">identifier exists</text>
        </g>
        <g fill="rgb(255,102,0)" text-rendering="geometricPrecision" shape-rendering="geometricPrecision"
           transform="matrix(2,0,0,2,-1388,-524)" stroke="rgb(255,102,0)">
            <rect x="968.7952" width="207.6576" height="30" y="390.4" clip-path="url(#clipPath2)" stroke="none"/>
        </g>
        <g text-rendering="geometricPrecision" stroke-miterlimit="1.45" shape-rendering="geometricPrecision"
           transform="matrix(2,0,0,2,-1388,-524)" stroke-linecap="butt">
            <rect fill="none" x="968.7952" width="207.6576" height="30" y="390.4" clip-path="url(#clipPath2)"/>
            <text x="1026.0918" xml:space="preserve" y="409.5543" clip-path="url(#clipPath2)" font-family="sans-serif" stroke="none">ControllerReply</text>
        </g>
        <g fill="rgb(255,102,0)" text-rendering="geometricPrecision" shape-rendering="geometricPrecision"
           transform="matrix(2,0,0,2,-1388,-524)" stroke="rgb(255,102,0)">
            <rect x="968.7952" width="207.6576" height="30" y="450.4" clip-path="url(#clipPath2)" stroke="none"/>
        </g>
        <g text-rendering="geometricPrecision" stroke-miterlimit="1.45" shape-rendering="geometricPrecision"
           transform="matrix(2,0,0,2,-1388,-524)" stroke-linecap="butt">
            <rect fill="none" x="968.7952" width="207.6576" height="30" y="450.4" clip-path="url(#clipPath2)"/>
            <text x="1026.0918" xml:space="preserve" y="469.5543" clip-path="url(#clipPath2)" font-family="sans-serif" stroke="none">ControllerReply</text>
        </g>
        <g fill="rgb(255,102,0)" text-rendering="geometricPrecision" shape-rendering="geometricPrecision"
           transform="matrix(2,0,0,2,-1388,-524)" stroke="rgb(255,102,0)">
            <rect x="702.7904" y="390.4" clip-path="url(#clipPath2)" width="207.6576" rx="4" ry="4" height="30"
                  stroke="none"/>
        </g>
        <g text-rendering="geometricPrecision" stroke-miterlimit="1.45" shape-rendering="geometricPrecision"
           transform="matrix(2,0,0,2,-1388,-524)" stroke-linecap="butt">
            <rect x="702.7904" y="390.4" clip-path="url(#clipPath2)" fill="none" width="207.6576" rx="4" ry="4"
                  height="30"/>
            <text x="737.2354" xml:space="preserve" y="409.5543" clip-path="url(#clipPath2)" font-family="sans-serif" stroke="none">connection established</text>
        </g>
        <g fill="rgb(255,102,0)" text-rendering="geometricPrecision" shape-rendering="geometricPrecision"
           transform="matrix(2,0,0,2,-1388,-524)" stroke="rgb(255,102,0)">
            <rect x="702.7904" y="450.4" clip-path="url(#clipPath2)" width="207.6576" rx="4" ry="4" height="30"
                  stroke="none"/>
        </g>
        <g text-rendering="geometricPrecision" stroke-miterlimit="1.45" shape-rendering="geometricPrecision"
           transform="matrix(2,0,0,2,-1388,-524)" stroke-linecap="butt">
            <rect x="702.7904" y="450.4" clip-path="url(#clipPath2)" fill="none" width="207.6576" rx="4" ry="4"
                  height="30"/>
            <text x="755.0303" xml:space="preserve" y="469.5543" clip-path="url(#clipPath2)" font-family="sans-serif" stroke="none">connection failed</text>
        </g>
        <g fill="rgb(255,102,0)" text-rendering="geometricPrecision" shape-rendering="geometricPrecision"
           transform="matrix(2,0,0,2,-1388,-524)" stroke="rgb(255,102,0)">
            <rect x="1234.8" y="510.4" clip-path="url(#clipPath2)" width="207.6576" rx="4" ry="4" height="30"
                  stroke="none"/>
        </g>
        <g text-rendering="geometricPrecision" stroke-miterlimit="1.45" shape-rendering="geometricPrecision"
           transform="matrix(2,0,0,2,-1388,-524)" stroke-linecap="butt">
            <rect x="1234.8" y="510.4" clip-path="url(#clipPath2)" fill="none" width="207.6576" rx="4" ry="4"
                  height="30"/>
            <text x="1288.2089" xml:space="preserve" y="529.5543" clip-path="url(#clipPath2)" font-family="sans-serif" stroke="none">close connection</text>
        </g>
        <g fill="rgb(255,102,0)" text-rendering="geometricPrecision" shape-rendering="geometricPrecision"
           transform="matrix(2,0,0,2,-1388,-524)" stroke="rgb(255,102,0)">
            <rect x="702.7904" y="510.4" clip-path="url(#clipPath2)" width="207.6576" rx="4" ry="4" height="30"
                  stroke="none"/>
        </g>
        <g text-rendering="geometricPrecision" stroke-miterlimit="1.45" shape-rendering="geometricPrecision"
           transform="matrix(2,0,0,2,-1388,-524)" stroke-linecap="butt">
            <rect x="702.7904" y="510.4" clip-path="url(#clipPath2)" fill="none" width="207.6576" rx="4" ry="4"
                  height="30"/>
            <text x="752.3907" xml:space="preserve" y="529.5543" clip-path="url(#clipPath2)" font-family="sans-serif" stroke="none">connection closed</text>
        </g>
        <g fill="rgb(255,102,0)" text-rendering="geometricPrecision" shape-rendering="geometricPrecision"
           transform="matrix(2,0,0,2,-1388,-524)" stroke="rgb(255,102,0)">
            <rect x="1234.8" y="590.6" clip-path="url(#clipPath2)" width="207.6576" rx="4" ry="4" height="30"
                  stroke="none"/>
        </g>
        <g text-rendering="geometricPrecision" stroke-miterlimit="1.45" shape-rendering="geometricPrecision"
           transform="matrix(2,0,0,2,-1388,-524)" stroke-linecap="butt">
            <rect x="1234.8" y="590.6" clip-path="url(#clipPath2)" fill="none" width="207.6576" rx="4" ry="4"
                  height="30"/>
            <text x="1283.3221" xml:space="preserve" y="609.7543" clip-path="url(#clipPath2)" font-family="sans-serif" stroke="none">take note of event</text>
        </g>
        <g fill="rgb(255,102,0)" text-rendering="geometricPrecision" shape-rendering="geometricPrecision"
           transform="matrix(2,0,0,2,-1388,-524)" stroke="rgb(255,102,0)">
            <rect x="702.7904" y="590.6" clip-path="url(#clipPath2)" width="207.6576" rx="4" ry="4" height="30"
                  stroke="none"/>
        </g>
        <g text-rendering="geometricPrecision" stroke-miterlimit="1.45" shape-rendering="geometricPrecision"
           transform="matrix(2,0,0,2,-1388,-524)" stroke-linecap="butt">
            <rect x="702.7904" y="590.6" clip-path="url(#clipPath2)" fill="none" width="207.6576" rx="4" ry="4"
                  height="30"/>
            <text x="741.9991" xml:space="preserve" y="609.7543" clip-path="url(#clipPath2)" font-family="sans-serif" stroke="none">game event detected</text>
        </g>
        <g fill="rgb(255,102,0)" text-rendering="geometricPrecision" shape-rendering="geometricPrecision"
           transform="matrix(2,0,0,2,-1388,-524)" stroke="rgb(255,102,0)">
            <rect x="968.7952" width="207.6576" height="30" y="590.6" clip-path="url(#clipPath2)" stroke="none"/>
        </g>
        <g text-rendering="geometricPrecision" stroke-miterlimit="1.45" shape-rendering="geometricPrecision"
           transform="matrix(2,0,0,2,-1388,-524)" stroke-linecap="butt">
            <rect fill="none" x="968.7952" width="207.6576" height="30" y="590.6" clip-path="url(#clipPath2)"/>
            <text x="987.0977" xml:space="preserve" y="609.7543" clip-path="url(#clipPath2)" font-family="sans-serif" stroke="none">AutoRefToControllerRequest</text>
        </g>
        <g fill="rgb(255,102,0)" text-rendering="geometricPrecision" shape-rendering="geometricPrecision"
           transform="matrix(2,0,0,2,-1388,-524)" stroke="rgb(255,102,0)">
            <rect x="1234.8" y="650.6" clip-path="url(#clipPath2)" width="207.6576" rx="4" ry="4" height="30"
                  stroke="none"/>
        </g>
        <g text-rendering="geometricPrecision" stroke-miterlimit="1.45" shape-rendering="geometricPrecision"
           transform="matrix(2,0,0,2,-1388,-524)" stroke-linecap="butt">
            <rect x="1234.8" y="650.6" clip-path="url(#clipPath2)" fill="none" width="207.6576" rx="4" ry="4"
                  height="30"/>
            <text x="1273.4462" xml:space="preserve" y="669.7543" clip-path="url(#clipPath2)" font-family="sans-serif" stroke="none">take note of message</text>
        </g>
        <g fill="rgb(255,102,0)" text-rendering="geometricPrecision" shape-rendering="geometricPrecision"
           transform="matrix(2,0,0,2,-1388,-524)" stroke="rgb(255,102,0)">
            <rect x="702.7904" y="650.6" clip-path="url(#clipPath2)" width="207.6576" rx="4" ry="4" height="30"
                  stroke="none"/>
        </g>
        <g text-rendering="geometricPrecision" stroke-miterlimit="1.45" shape-rendering="geometricPrecision"
           transform="matrix(2,0,0,2,-1388,-524)" stroke-linecap="butt">
            <rect x="702.7904" y="650.6" clip-path="url(#clipPath2)" fill="none" width="207.6576" rx="4" ry="4"
                  height="30"/>
            <text x="756.6065" xml:space="preserve" y="669.7543" clip-path="url(#clipPath2)" font-family="sans-serif" stroke="none">update message</text>
        </g>
        <g fill="rgb(255,102,0)" text-rendering="geometricPrecision" shape-rendering="geometricPrecision"
           transform="matrix(2,0,0,2,-1388,-524)" stroke="rgb(255,102,0)">
            <rect x="968.7952" width="207.6576" height="30" y="650.6" clip-path="url(#clipPath2)" stroke="none"/>
        </g>
        <g text-rendering="geometricPrecision" stroke-miterlimit="1.45" shape-rendering="geometricPrecision"
           transform="matrix(2,0,0,2,-1388,-524)" stroke-linecap="butt">
            <rect fill="none" x="968.7952" width="207.6576" height="30" y="650.6" clip-path="url(#clipPath2)"/>
            <text x="987.0977" xml:space="preserve" y="669.7543" clip-path="url(#clipPath2)" font-family="sans-serif" stroke="none">AutoRefToControllerRequest</text>
        </g>
        <g fill="rgb(255,102,0)" text-rendering="geometricPrecision" shape-rendering="geometricPrecision"
           transform="matrix(2,0,0,2,-1388,-524)" stroke="rgb(255,102,0)">
            <rect x="1234.8" y="710.6" clip-path="url(#clipPath2)" width="207.6576" rx="4" ry="4" height="30"
                  stroke="none"/>
        </g>
        <g text-rendering="geometricPrecision" stroke-miterlimit="1.45" shape-rendering="geometricPrecision"
           transform="matrix(2,0,0,2,-1388,-524)" stroke-linecap="butt">
            <rect x="1234.8" y="710.6" clip-path="url(#clipPath2)" fill="none" width="207.6576" rx="4" ry="4"
                  height="30"/>
            <text x="1288.2264" xml:space="preserve" y="729.7543" clip-path="url(#clipPath2)" font-family="sans-serif" stroke="none">take note of that</text>
        </g>
        <g fill="rgb(255,102,0)" text-rendering="geometricPrecision" shape-rendering="geometricPrecision"
           transform="matrix(2,0,0,2,-1388,-524)" stroke="rgb(255,102,0)">
            <rect x="702.7904" y="710.6" clip-path="url(#clipPath2)" width="207.6576" rx="4" ry="4" height="30"
                  stroke="none"/>
        </g>
        <g text-rendering="geometricPrecision" stroke-miterlimit="1.45" shape-rendering="geometricPrecision"
           transform="matrix(2,0,0,2,-1388,-524)" stroke-linecap="butt">
            <rect x="702.7904" y="710.6" clip-path="url(#clipPath2)" fill="none" width="207.6576" rx="4" ry="4"
                  height="30"/>
            <text x="753.4981" xml:space="preserve" y="729.7543" clip-path="url(#clipPath2)" font-family="sans-serif" stroke="none">ready to continue</text>
        </g>
        <g fill="rgb(255,102,0)" text-rendering="geometricPrecision" shape-rendering="geometricPrecision"
           transform="matrix(2,0,0,2,-1388,-524)" stroke="rgb(255,102,0)">
            <rect x="968.7952" width="207.6576" height="30" y="710.6" clip-path="url(#clipPath2)" stroke="none"/>
        </g>
        <g text-rendering="geometricPrecision" stroke-miterlimit="1.45" shape-rendering="geometricPrecision"
           transform="matrix(2,0,0,2,-1388,-524)" stroke-linecap="butt">
            <rect fill="none" x="968.7952" width="207.6576" height="30" y="710.6" clip-path="url(#clipPath2)"/>
            <text x="987.0977" xml:space="preserve" y="729.7543" clip-path="url(#clipPath2)" font-family="sans-serif" stroke="none">AutoRefToControllerRequest</text>
            <path fill="none" d="M910.4299 345.4 L960.7952 345.4" clip-path="url(#clipPath2)"/>
            <path d="M968.7952 345.4 L956.7952 340.4 L959.7952 345.4 L956.7952 350.4 Z" clip-path="url(#clipPath2)"
                  stroke="none"/>
            <path fill="none" d="M1176.4528 345.4 L1226.7744 345.4" clip-path="url(#clipPath2)"/>
            <path d="M1234.7744 345.4 L1222.7744 340.4 L1225.7744 345.4 L1222.7744 350.4 Z" clip-path="url(#clipPath2)"
                  stroke="none"/>
            <path fill="none" d="M1338.6288 360.3707 L1338.6288 382.4049" clip-path="url(#clipPath2)"/>
            <path d="M1338.6288 390.4049 L1343.6288 378.4049 L1338.6288 381.4049 L1333.6288 378.4049 Z"
                  clip-path="url(#clipPath2)" stroke="none"/>
            <path fill="none" d="M1442.4381 345.4 L1476.1904 345.4 L1476.1904 465.4 L1450.4381 465.4"
                  clip-path="url(#clipPath2)"/>
            <path d="M1442.4381 465.4 L1454.4381 470.4 L1451.4381 465.4 L1454.4381 460.4 Z" clip-path="url(#clipPath2)"
                  stroke="none"/>
            <path fill="none" d="M1234.8181 405.4 L1184.4528 405.4" clip-path="url(#clipPath2)"/>
            <path d="M1176.4528 405.4 L1188.4528 410.4 L1185.4528 405.4 L1188.4528 400.4 Z" clip-path="url(#clipPath2)"
                  stroke="none"/>
            <path fill="none" d="M1234.8181 465.4 L1184.4528 465.4" clip-path="url(#clipPath2)"/>
            <path d="M1176.4528 465.4 L1188.4528 470.4 L1185.4528 465.4 L1188.4528 460.4 Z" clip-path="url(#clipPath2)"
                  stroke="none"/>
            <path fill="none" d="M968.7952 405.4 L918.4736 405.4" clip-path="url(#clipPath2)"/>
            <path d="M910.4736 405.4 L922.4736 410.4 L919.4736 405.4 L922.4736 400.4 Z" clip-path="url(#clipPath2)"
                  stroke="none"/>
            <path fill="none" d="M968.7952 465.4 L918.4736 465.4" clip-path="url(#clipPath2)"/>
            <path d="M910.4736 465.4 L922.4736 470.4 L919.4736 465.4 L922.4736 460.4 Z" clip-path="url(#clipPath2)"
                  stroke="none"/>
            <path fill="none" d="M1338.6288 480.3707 L1338.6288 502.4049" clip-path="url(#clipPath2)"/>
            <path d="M1338.6288 510.4049 L1343.6288 498.4049 L1338.6288 501.4049 L1333.6288 498.4049 Z"
                  clip-path="url(#clipPath2)" stroke="none"/>
            <path fill="none" d="M1234.8181 525.4 L918.4543 525.4" clip-path="url(#clipPath2)"/>
            <path d="M910.4543 525.4 L922.4543 530.4 L919.4543 525.4 L922.4543 520.4 Z" clip-path="url(#clipPath2)"
                  stroke="none"/>
            <path fill="none" d="M910.4299 605.6 L960.7952 605.6" clip-path="url(#clipPath2)"/>
            <path d="M968.7952 605.6 L956.7952 600.6 L959.7952 605.6 L956.7952 610.6 Z" clip-path="url(#clipPath2)"
                  stroke="none"/>
            <path fill="none" d="M1176.4528 605.6 L1226.7744 605.6" clip-path="url(#clipPath2)"/>
            <path d="M1234.7744 605.6 L1222.7744 600.6 L1225.7744 605.6 L1222.7744 610.6 Z" clip-path="url(#clipPath2)"
                  stroke="none"/>
            <path fill="none" d="M910.4299 665.6 L960.7952 665.6" clip-path="url(#clipPath2)"/>
            <path d="M968.7952 665.6 L956.7952 660.6 L959.7952 665.6 L956.7952 670.6 Z" clip-path="url(#clipPath2)"
                  stroke="none"/>
            <path fill="none" d="M1176.4528 665.6 L1226.7744 665.6" clip-path="url(#clipPath2)"/>
            <path d="M1234.7744 665.6 L1222.7744 660.6 L1225.7744 665.6 L1222.7744 670.6 Z" clip-path="url(#clipPath2)"
                  stroke="none"/>
            <path fill="none" d="M910.4299 725.6 L960.7952 725.6" clip-path="url(#clipPath2)"/>
            <path d="M968.7952 725.6 L956.7952 720.6 L959.7952 725.6 L956.7952 730.6 Z" clip-path="url(#clipPath2)"
                  stroke="none"/>
            <path fill="none" d="M1176.4528 725.6 L1226.7744 725.6" clip-path="url(#clipPath2)"/>
            <path d="M1234.7744 725.6 L1222.7744 720.6 L1225.7744 725.6 L1222.7744 730.6 Z" clip-path="url(#clipPath2)"
                  stroke="none"/>
        </g>
    </g>
</svg>
