<?xml version="1.0" encoding="UTF-8"?>
<svg xmlns="http://www.w3.org/2000/svg" fill-opacity="1" color-rendering="auto" color-interpolation="auto"
     text-rendering="auto" stroke="black" stroke-linecap="square" width="1580" stroke-miterlimit="10"
     shape-rendering="auto" stroke-opacity="1" fill="black" stroke-dasharray="none" font-weight="normal"
     stroke-width="1" height="1132" font-family="'Dialog'" font-style="normal" stroke-linejoin="miter" font-size="12px"
     stroke-dashoffset="0" image-rendering="auto">
    <!--Generated by ySVG 2.5-->
    <defs id="genericDefs"/>
    <g>
        <defs id="defs1">
            <clipPath clipPathUnits="userSpaceOnUse" id="clipPath1">
                <path d="M0 0 L1580 0 L1580 1132 L0 1132 L0 0 Z"/>
            </clipPath>
            <clipPath clipPathUnits="userSpaceOnUse" id="clipPath2">
                <path d="M669 237 L1459 237 L1459 803 L669 803 L669 237 Z"/>
            </clipPath>
        </defs>
        <g fill="rgb(0,204,255)" text-rendering="geometricPrecision" shape-rendering="geometricPrecision"
           transform="matrix(2,0,0,2,-1338,-474)" stroke="rgb(0,204,255)">
            <rect x="943.4" width="207.6576" height="30" y="305.2" clip-path="url(#clipPath2)" stroke="none"/>
        </g>
        <g text-rendering="geometricPrecision" stroke-miterlimit="1.45" shape-rendering="geometricPrecision"
           transform="matrix(2,0,0,2,-1338,-474)" stroke-linecap="butt">
            <rect fill="none" x="943.4" width="207.6576" height="30" y="305.2" clip-path="url(#clipPath2)"/>
            <text x="993.8997" xml:space="preserve" y="324.3543" clip-path="url(#clipPath2)" font-family="sans-serif" stroke="none">TeamRegistration</text>
        </g>
        <g fill="rgb(0,204,255)" text-rendering="geometricPrecision" shape-rendering="geometricPrecision"
           transform="matrix(2,0,0,2,-1338,-474)" stroke="rgb(0,204,255)">
            <path d="M677.3956 260.2003 L698.1656 245.2003 L864.2852 245.2003 L885.0518 260.2003 L864.2852 275.2 L698.1656 275.2 Z"
                  fill-rule="evenodd" clip-path="url(#clipPath2)" stroke="none"/>
        </g>
        <g text-rendering="geometricPrecision" stroke-miterlimit="1.45" shape-rendering="geometricPrecision"
           transform="matrix(2,0,0,2,-1338,-474)" stroke-linecap="butt">
            <path fill="none"
                  d="M677.3956 260.2003 L698.1656 245.2003 L864.2852 245.2003 L885.0518 260.2003 L864.2852 275.2 L698.1656 275.2 Z"
                  fill-rule="evenodd" clip-path="url(#clipPath2)"/>
            <text x="732.6117" xml:space="preserve" y="264.3543" clip-path="url(#clipPath2)" font-family="sans-serif" stroke="none">Team Computer</text>
        </g>
        <g fill="rgb(0,204,255)" text-rendering="geometricPrecision" shape-rendering="geometricPrecision"
           transform="matrix(2,0,0,2,-1338,-474)" stroke="rgb(0,204,255)">
            <path d="M1209.4064 260.2002 L1230.1721 245.2002 L1396.2982 245.2002 L1417.064 260.2002 L1396.2982 275.2 L1230.1721 275.2 Z"
                  fill-rule="evenodd" clip-path="url(#clipPath2)" stroke="none"/>
        </g>
        <g text-rendering="geometricPrecision" stroke-miterlimit="1.45" shape-rendering="geometricPrecision"
           transform="matrix(2,0,0,2,-1338,-474)" stroke-linecap="butt">
            <path fill="none"
                  d="M1209.4064 260.2002 L1230.1721 245.2002 L1396.2982 245.2002 L1417.064 260.2002 L1396.2982 275.2 L1230.1721 275.2 Z"
                  fill-rule="evenodd" clip-path="url(#clipPath2)"/>
            <text x="1263.8186" xml:space="preserve" y="264.3543" clip-path="url(#clipPath2)" font-family="sans-serif" stroke="none">Game Controller</text>
        </g>
        <g fill="rgb(0,204,255)" text-rendering="geometricPrecision" shape-rendering="geometricPrecision"
           transform="matrix(2,0,0,2,-1338,-474)" stroke="rgb(0,204,255)">
            <rect x="677.3952" y="305.2" clip-path="url(#clipPath2)" width="207.6576" rx="4" ry="4" height="30"
                  stroke="none"/>
        </g>
        <g text-rendering="geometricPrecision" stroke-miterlimit="1.45" shape-rendering="geometricPrecision"
           transform="matrix(2,0,0,2,-1338,-474)" stroke-linecap="butt">
            <rect x="677.3952" y="305.2" clip-path="url(#clipPath2)" fill="none" width="207.6576" rx="4" ry="4"
                  height="30"/>
            <text x="718.7133" xml:space="preserve" y="324.3543" clip-path="url(#clipPath2)" font-family="sans-serif" stroke="none">connect to controller</text>
        </g>
        <g fill="rgb(0,204,255)" text-rendering="geometricPrecision" shape-rendering="geometricPrecision"
           transform="matrix(2,0,0,2,-1338,-474)" stroke="rgb(0,204,255)">
            <rect x="1209.4048" y="305.2" clip-path="url(#clipPath2)" width="207.6576" rx="4" ry="4" height="30"
                  stroke="none"/>
        </g>
        <g text-rendering="geometricPrecision" stroke-miterlimit="1.45" shape-rendering="geometricPrecision"
           transform="matrix(2,0,0,2,-1338,-474)" stroke-linecap="butt">
            <rect x="1209.4048" y="305.2" clip-path="url(#clipPath2)" fill="none" width="207.6576" rx="4" ry="4"
                  height="30"/>
            <text x="1249.5305" xml:space="preserve" y="324.3543" clip-path="url(#clipPath2)" font-family="sans-serif" stroke="none">check if team is valid</text>
        </g>
        <g fill="rgb(0,204,255)" text-rendering="geometricPrecision" shape-rendering="geometricPrecision"
           transform="matrix(2,0,0,2,-1338,-474)" stroke="rgb(0,204,255)">
            <rect x="1209.4048" y="365.2" clip-path="url(#clipPath2)" width="207.6576" rx="4" ry="4" height="30"
                  stroke="none"/>
        </g>
        <g text-rendering="geometricPrecision" stroke-miterlimit="1.45" shape-rendering="geometricPrecision"
           transform="matrix(2,0,0,2,-1338,-474)" stroke-linecap="butt">
            <rect x="1209.4048" y="365.2" clip-path="url(#clipPath2)" fill="none" width="207.6576" rx="4" ry="4"
                  height="30"/>
            <text x="1274.6907" xml:space="preserve" y="384.3543" clip-path="url(#clipPath2)" font-family="sans-serif" stroke="none">team is valid</text>
        </g>
        <g fill="rgb(0,204,255)" text-rendering="geometricPrecision" shape-rendering="geometricPrecision"
           transform="matrix(2,0,0,2,-1338,-474)" stroke="rgb(0,204,255)">
            <rect x="1209.4048" y="425.2" clip-path="url(#clipPath2)" width="207.6576" rx="4" ry="4" height="30"
                  stroke="none"/>
        </g>
        <g text-rendering="geometricPrecision" stroke-miterlimit="1.45" shape-rendering="geometricPrecision"
           transform="matrix(2,0,0,2,-1338,-474)" stroke-linecap="butt">
            <rect x="1209.4048" y="425.2" clip-path="url(#clipPath2)" fill="none" width="207.6576" rx="4" ry="4"
                  height="30"/>
            <text x="1262.9573" xml:space="preserve" y="444.3543" clip-path="url(#clipPath2)" font-family="sans-serif" stroke="none">team is not valid</text>
        </g>
        <g fill="rgb(0,204,255)" text-rendering="geometricPrecision" shape-rendering="geometricPrecision"
           transform="matrix(2,0,0,2,-1338,-474)" stroke="rgb(0,204,255)">
            <rect x="943.4" width="207.6576" height="30" y="365.2" clip-path="url(#clipPath2)" stroke="none"/>
        </g>
        <g text-rendering="geometricPrecision" stroke-miterlimit="1.45" shape-rendering="geometricPrecision"
           transform="matrix(2,0,0,2,-1338,-474)" stroke-linecap="butt">
            <rect fill="none" x="943.4" width="207.6576" height="30" y="365.2" clip-path="url(#clipPath2)"/>
            <text x="1000.6966" xml:space="preserve" y="384.3543" clip-path="url(#clipPath2)" font-family="sans-serif" stroke="none">ControllerReply</text>
        </g>
        <g fill="rgb(0,204,255)" text-rendering="geometricPrecision" shape-rendering="geometricPrecision"
           transform="matrix(2,0,0,2,-1338,-474)" stroke="rgb(0,204,255)">
            <rect x="943.4" width="207.6576" height="30" y="425.2" clip-path="url(#clipPath2)" stroke="none"/>
        </g>
        <g text-rendering="geometricPrecision" stroke-miterlimit="1.45" shape-rendering="geometricPrecision"
           transform="matrix(2,0,0,2,-1338,-474)" stroke-linecap="butt">
            <rect fill="none" x="943.4" width="207.6576" height="30" y="425.2" clip-path="url(#clipPath2)"/>
            <text x="1000.6966" xml:space="preserve" y="444.3543" clip-path="url(#clipPath2)" font-family="sans-serif" stroke="none">ControllerReply</text>
        </g>
        <g fill="rgb(0,204,255)" text-rendering="geometricPrecision" shape-rendering="geometricPrecision"
           transform="matrix(2,0,0,2,-1338,-474)" stroke="rgb(0,204,255)">
            <rect x="677.3952" y="365.2" clip-path="url(#clipPath2)" width="207.6576" rx="4" ry="4" height="30"
                  stroke="none"/>
        </g>
        <g text-rendering="geometricPrecision" stroke-miterlimit="1.45" shape-rendering="geometricPrecision"
           transform="matrix(2,0,0,2,-1338,-474)" stroke-linecap="butt">
            <rect x="677.3952" y="365.2" clip-path="url(#clipPath2)" fill="none" width="207.6576" rx="4" ry="4"
                  height="30"/>
            <text x="711.8402" xml:space="preserve" y="384.3543" clip-path="url(#clipPath2)" font-family="sans-serif" stroke="none">connection established</text>
        </g>
        <g fill="rgb(0,204,255)" text-rendering="geometricPrecision" shape-rendering="geometricPrecision"
           transform="matrix(2,0,0,2,-1338,-474)" stroke="rgb(0,204,255)">
            <rect x="677.3952" y="425.2" clip-path="url(#clipPath2)" width="207.6576" rx="4" ry="4" height="30"
                  stroke="none"/>
        </g>
        <g text-rendering="geometricPrecision" stroke-miterlimit="1.45" shape-rendering="geometricPrecision"
           transform="matrix(2,0,0,2,-1338,-474)" stroke-linecap="butt">
            <rect x="677.3952" y="425.2" clip-path="url(#clipPath2)" fill="none" width="207.6576" rx="4" ry="4"
                  height="30"/>
            <text x="729.6351" xml:space="preserve" y="444.3543" clip-path="url(#clipPath2)" font-family="sans-serif" stroke="none">connection failed</text>
        </g>
        <g fill="rgb(0,204,255)" text-rendering="geometricPrecision" shape-rendering="geometricPrecision"
           transform="matrix(2,0,0,2,-1338,-474)" stroke="rgb(0,204,255)">
            <rect x="1209.4048" y="485.2" clip-path="url(#clipPath2)" width="207.6576" rx="4" ry="4" height="30"
                  stroke="none"/>
        </g>
        <g text-rendering="geometricPrecision" stroke-miterlimit="1.45" shape-rendering="geometricPrecision"
           transform="matrix(2,0,0,2,-1338,-474)" stroke-linecap="butt">
            <rect x="1209.4048" y="485.2" clip-path="url(#clipPath2)" fill="none" width="207.6576" rx="4" ry="4"
                  height="30"/>
            <text x="1262.8137" xml:space="preserve" y="504.3543" clip-path="url(#clipPath2)" font-family="sans-serif" stroke="none">close connection</text>
        </g>
        <g fill="rgb(0,204,255)" text-rendering="geometricPrecision" shape-rendering="geometricPrecision"
           transform="matrix(2,0,0,2,-1338,-474)" stroke="rgb(0,204,255)">
            <rect x="677.3952" y="485.2" clip-path="url(#clipPath2)" width="207.6576" rx="4" ry="4" height="30"
                  stroke="none"/>
        </g>
        <g text-rendering="geometricPrecision" stroke-miterlimit="1.45" shape-rendering="geometricPrecision"
           transform="matrix(2,0,0,2,-1338,-474)" stroke-linecap="butt">
            <rect x="677.3952" y="485.2" clip-path="url(#clipPath2)" fill="none" width="207.6576" rx="4" ry="4"
                  height="30"/>
            <text x="726.9955" xml:space="preserve" y="504.3543" clip-path="url(#clipPath2)" font-family="sans-serif" stroke="none">connection closed</text>
        </g>
        <g fill="rgb(0,204,255)" text-rendering="geometricPrecision" shape-rendering="geometricPrecision"
           transform="matrix(2,0,0,2,-1338,-474)" stroke="rgb(0,204,255)">
            <rect x="1209.4048" y="564.8" clip-path="url(#clipPath2)" width="207.6576" rx="4" ry="4" height="30"
                  stroke="none"/>
        </g>
        <g text-rendering="geometricPrecision" stroke-miterlimit="1.45" shape-rendering="geometricPrecision"
           transform="matrix(2,0,0,2,-1338,-474)" stroke-linecap="butt">
            <rect x="1209.4048" y="564.8" clip-path="url(#clipPath2)" fill="none" width="207.6576" rx="4" ry="4"
                  height="30"/>
            <text x="1267.7385" xml:space="preserve" y="583.9543" clip-path="url(#clipPath2)" font-family="sans-serif" stroke="none">check if in stop</text>
        </g>
        <g fill="rgb(0,204,255)" text-rendering="geometricPrecision" shape-rendering="geometricPrecision"
           transform="matrix(2,0,0,2,-1338,-474)" stroke="rgb(0,204,255)">
            <rect x="677.3952" y="564.8" clip-path="url(#clipPath2)" width="207.6576" rx="4" ry="4" height="30"
                  stroke="none"/>
        </g>
        <g text-rendering="geometricPrecision" stroke-miterlimit="1.45" shape-rendering="geometricPrecision"
           transform="matrix(2,0,0,2,-1338,-474)" stroke-linecap="butt">
            <rect x="677.3952" y="564.8" clip-path="url(#clipPath2)" fill="none" width="207.6576" rx="4" ry="4"
                  height="30"/>
            <text x="729.0287" xml:space="preserve" y="583.9543" clip-path="url(#clipPath2)" font-family="sans-serif" stroke="none">change keeper id</text>
        </g>
        <g fill="rgb(0,204,255)" text-rendering="geometricPrecision" shape-rendering="geometricPrecision"
           transform="matrix(2,0,0,2,-1338,-474)" stroke="rgb(0,204,255)">
            <rect x="943.4" width="207.6576" height="30" y="564.8" clip-path="url(#clipPath2)" stroke="none"/>
        </g>
        <g text-rendering="geometricPrecision" stroke-miterlimit="1.45" shape-rendering="geometricPrecision"
           transform="matrix(2,0,0,2,-1338,-474)" stroke-linecap="butt">
            <rect fill="none" x="943.4" width="207.6576" height="30" y="564.8" clip-path="url(#clipPath2)"/>
            <text x="968.7278" xml:space="preserve" y="583.9543" clip-path="url(#clipPath2)" font-family="sans-serif" stroke="none">TeamToControllerRequest</text>
        </g>
        <g fill="rgb(0,204,255)" text-rendering="geometricPrecision" shape-rendering="geometricPrecision"
           transform="matrix(2,0,0,2,-1338,-474)" stroke="rgb(0,204,255)">
            <rect x="943.4" width="207.6576" height="30" y="624.8" clip-path="url(#clipPath2)" stroke="none"/>
        </g>
        <g text-rendering="geometricPrecision" stroke-miterlimit="1.45" shape-rendering="geometricPrecision"
           transform="matrix(2,0,0,2,-1338,-474)" stroke-linecap="butt">
            <rect fill="none" x="943.4" width="207.6576" height="30" y="624.8" clip-path="url(#clipPath2)"/>
            <text x="1000.6966" xml:space="preserve" y="643.9543" clip-path="url(#clipPath2)" font-family="sans-serif" stroke="none">ControllerReply</text>
        </g>
        <g fill="rgb(0,204,255)" text-rendering="geometricPrecision" shape-rendering="geometricPrecision"
           transform="matrix(2,0,0,2,-1338,-474)" stroke="rgb(0,204,255)">
            <rect x="677.3952" y="624.8" clip-path="url(#clipPath2)" width="207.6576" rx="4" ry="4" height="30"
                  stroke="none"/>
        </g>
        <g text-rendering="geometricPrecision" stroke-miterlimit="1.45" shape-rendering="geometricPrecision"
           transform="matrix(2,0,0,2,-1338,-474)" stroke-linecap="butt">
            <rect x="677.3952" y="624.8" clip-path="url(#clipPath2)" fill="none" width="207.6576" rx="4" ry="4"
                  height="30"/>
            <text x="703.8129" xml:space="preserve" y="643.9543" clip-path="url(#clipPath2)" font-family="sans-serif" stroke="none">keeper might be changed</text>
        </g>
        <g fill="rgb(0,204,255)" text-rendering="geometricPrecision" shape-rendering="geometricPrecision"
           transform="matrix(2,0,0,2,-1338,-474)" stroke="rgb(0,204,255)">
            <rect x="1209.4048" y="704.4" clip-path="url(#clipPath2)" width="207.6576" rx="4" ry="4" height="30"
                  stroke="none"/>
        </g>
        <g text-rendering="geometricPrecision" stroke-miterlimit="1.45" shape-rendering="geometricPrecision"
           transform="matrix(2,0,0,2,-1338,-474)" stroke-linecap="butt">
            <rect x="1209.4048" y="704.4" clip-path="url(#clipPath2)" fill="none" width="207.6576" rx="4" ry="4"
                  height="30"/>
            <text x="1258.8469" xml:space="preserve" y="723.5543" clip-path="url(#clipPath2)" font-family="sans-serif" stroke="none">ask for advantage</text>
        </g>
        <g fill="rgb(0,204,255)" text-rendering="geometricPrecision" shape-rendering="geometricPrecision"
           transform="matrix(2,0,0,2,-1338,-474)" stroke="rgb(0,204,255)">
            <rect x="677.3952" y="704.4" clip-path="url(#clipPath2)" width="207.6576" rx="4" ry="4" height="30"
                  stroke="none"/>
        </g>
        <g text-rendering="geometricPrecision" stroke-miterlimit="1.45" shape-rendering="geometricPrecision"
           transform="matrix(2,0,0,2,-1338,-474)" stroke-linecap="butt">
            <rect x="677.3952" y="704.4" clip-path="url(#clipPath2)" fill="none" width="207.6576" rx="4" ry="4"
                  height="30"/>
            <text x="691.4232" xml:space="preserve" y="723.5543" clip-path="url(#clipPath2)" font-family="sans-serif" stroke="none">decide to stop/continue game</text>
        </g>
        <g fill="rgb(0,204,255)" text-rendering="geometricPrecision" shape-rendering="geometricPrecision"
           transform="matrix(2,0,0,2,-1338,-474)" stroke="rgb(0,204,255)">
            <rect x="943.4" width="207.6576" height="30" y="704.4" clip-path="url(#clipPath2)" stroke="none"/>
        </g>
        <g text-rendering="geometricPrecision" stroke-miterlimit="1.45" shape-rendering="geometricPrecision"
           transform="matrix(2,0,0,2,-1338,-474)" stroke-linecap="butt">
            <rect fill="none" x="943.4" width="207.6576" height="30" y="704.4" clip-path="url(#clipPath2)"/>
            <text x="968.7278" xml:space="preserve" y="723.5543" clip-path="url(#clipPath2)" font-family="sans-serif" stroke="none">ControllerToTeamRequest</text>
        </g>
        <g fill="rgb(0,204,255)" text-rendering="geometricPrecision" shape-rendering="geometricPrecision"
           transform="matrix(2,0,0,2,-1338,-474)" stroke="rgb(0,204,255)">
            <rect x="943.4" width="207.6576" height="30" y="764.4" clip-path="url(#clipPath2)" stroke="none"/>
        </g>
        <g text-rendering="geometricPrecision" stroke-miterlimit="1.45" shape-rendering="geometricPrecision"
           transform="matrix(2,0,0,2,-1338,-474)" stroke-linecap="butt">
            <rect fill="none" x="943.4" width="207.6576" height="30" y="764.4" clip-path="url(#clipPath2)"/>
            <text x="968.7278" xml:space="preserve" y="783.5543" clip-path="url(#clipPath2)" font-family="sans-serif" stroke="none">TeamToControllerRequest</text>
        </g>
        <g fill="rgb(0,204,255)" text-rendering="geometricPrecision" shape-rendering="geometricPrecision"
           transform="matrix(2,0,0,2,-1338,-474)" stroke="rgb(0,204,255)">
            <rect x="1209.4048" y="764.4" clip-path="url(#clipPath2)" width="207.6576" rx="4" ry="4" height="30"
                  stroke="none"/>
        </g>
        <g text-rendering="geometricPrecision" stroke-miterlimit="1.45" shape-rendering="geometricPrecision"
           transform="matrix(2,0,0,2,-1338,-474)" stroke-linecap="butt">
            <rect x="1209.4048" y="764.4" clip-path="url(#clipPath2)" fill="none" width="207.6576" rx="4" ry="4"
                  height="30"/>
            <text x="1255.677" xml:space="preserve" y="783.5543" clip-path="url(#clipPath2)" font-family="sans-serif" stroke="none">apply the response</text>
            <path fill="none" d="M885.0347 320.2 L935.4 320.2" clip-path="url(#clipPath2)"/>
            <path d="M943.4 320.2 L931.4 315.2 L934.4 320.2 L931.4 325.2 Z" clip-path="url(#clipPath2)" stroke="none"/>
            <path fill="none" d="M1151.0576 320.2 L1201.3792 320.2" clip-path="url(#clipPath2)"/>
            <path d="M1209.3792 320.2 L1197.3792 315.2 L1200.3792 320.2 L1197.3792 325.2 Z" clip-path="url(#clipPath2)"
                  stroke="none"/>
            <path fill="none" d="M1313.2336 335.1707 L1313.2336 357.2049" clip-path="url(#clipPath2)"/>
            <path d="M1313.2336 365.2049 L1318.2336 353.2049 L1313.2336 356.2049 L1308.2336 353.2049 Z"
                  clip-path="url(#clipPath2)" stroke="none"/>
            <path fill="none" d="M1417.0428 320.2 L1450.7952 320.2 L1450.7952 440.2 L1425.0428 440.2"
                  clip-path="url(#clipPath2)"/>
            <path d="M1417.0428 440.2 L1429.0428 445.2 L1426.0428 440.2 L1429.0428 435.2 Z" clip-path="url(#clipPath2)"
                  stroke="none"/>
            <path fill="none" d="M1209.4229 380.2 L1159.0576 380.2" clip-path="url(#clipPath2)"/>
            <path d="M1151.0576 380.2 L1163.0576 385.2 L1160.0576 380.2 L1163.0576 375.2 Z" clip-path="url(#clipPath2)"
                  stroke="none"/>
            <path fill="none" d="M1209.4229 440.2 L1159.0576 440.2" clip-path="url(#clipPath2)"/>
            <path d="M1151.0576 440.2 L1163.0576 445.2 L1160.0576 440.2 L1163.0576 435.2 Z" clip-path="url(#clipPath2)"
                  stroke="none"/>
            <path fill="none" d="M943.4 380.2 L893.0784 380.2" clip-path="url(#clipPath2)"/>
            <path d="M885.0784 380.2 L897.0784 385.2 L894.0784 380.2 L897.0784 375.2 Z" clip-path="url(#clipPath2)"
                  stroke="none"/>
            <path fill="none" d="M943.4 440.2 L893.0784 440.2" clip-path="url(#clipPath2)"/>
            <path d="M885.0784 440.2 L897.0784 445.2 L894.0784 440.2 L897.0784 435.2 Z" clip-path="url(#clipPath2)"
                  stroke="none"/>
            <path fill="none" d="M1313.2336 455.1707 L1313.2336 477.2049" clip-path="url(#clipPath2)"/>
            <path d="M1313.2336 485.2049 L1318.2336 473.2049 L1313.2336 476.2049 L1308.2336 473.2049 Z"
                  clip-path="url(#clipPath2)" stroke="none"/>
            <path fill="none" d="M1209.4229 500.2 L893.0591 500.2" clip-path="url(#clipPath2)"/>
            <path d="M885.0591 500.2 L897.0591 505.2 L894.0591 500.2 L897.0591 495.2 Z" clip-path="url(#clipPath2)"
                  stroke="none"/>
            <path fill="none" d="M885.0347 579.8 L935.4 579.8" clip-path="url(#clipPath2)"/>
            <path d="M943.4 579.8 L931.4 574.8 L934.4 579.8 L931.4 584.8 Z" clip-path="url(#clipPath2)" stroke="none"/>
            <path fill="none" d="M1151.0576 579.8 L1201.3792 579.8" clip-path="url(#clipPath2)"/>
            <path d="M1209.3792 579.8 L1197.3792 574.8 L1200.3792 579.8 L1197.3792 584.8 Z" clip-path="url(#clipPath2)"
                  stroke="none"/>
            <path fill="none" d="M1313.2336 594.7707 L1313.2336 639.8 L1159.0576 639.8" clip-path="url(#clipPath2)"/>
            <path d="M1151.0576 639.8 L1163.0576 644.8 L1160.0576 639.8 L1163.0576 634.8 Z" clip-path="url(#clipPath2)"
                  stroke="none"/>
            <path fill="none" d="M943.4 639.8 L893.0784 639.8" clip-path="url(#clipPath2)"/>
            <path d="M885.0784 639.8 L897.0784 644.8 L894.0784 639.8 L897.0784 634.8 Z" clip-path="url(#clipPath2)"
                  stroke="none"/>
            <path fill="none" d="M1209.4229 719.4 L1159.0576 719.4" clip-path="url(#clipPath2)"/>
            <path d="M1151.0576 719.4 L1163.0576 724.4 L1160.0576 719.4 L1163.0576 714.4 Z" clip-path="url(#clipPath2)"
                  stroke="none"/>
            <path fill="none" d="M943.4 719.4 L893.0784 719.4" clip-path="url(#clipPath2)"/>
            <path d="M885.0784 719.4 L897.0784 724.4 L894.0784 719.4 L897.0784 714.4 Z" clip-path="url(#clipPath2)"
                  stroke="none"/>
            <path fill="none" d="M781.224 734.3707 L781.224 779.4 L935.4 779.4" clip-path="url(#clipPath2)"/>
            <path d="M943.4 779.4 L931.4 774.4 L934.4 779.4 L931.4 784.4 Z" clip-path="url(#clipPath2)" stroke="none"/>
            <path fill="none" d="M1151.0576 779.4 L1201.3792 779.4" clip-path="url(#clipPath2)"/>
            <path d="M1209.3792 779.4 L1197.3792 774.4 L1200.3792 779.4 L1197.3792 784.4 Z" clip-path="url(#clipPath2)"
                  stroke="none"/>
        </g>
    </g>
</svg>
